# File created by Blade
# Date/Time:  Fri Jan 16 19:40:56 2015
#---------------------------------------------------------
:version 1.10
:name HOM
:units
  mass 1.0
  length 1.000000
  angle deg
:documentation
     Acclaim Skeleton File
:root
   axis xyz
   order TX TY TZ RX RY RZ
   position 0.000000 0.000000 0.000000
   orientation 0 0 0
:bonedata
   begin
      id 1
      name Spine_dum
      direction 0.000000 1.000000 0.000000
      length 7.067664
      axis 0.0 0.0 0.0 xyz
   end
   begin
      id 2
      name LeftUpLeg_dum
      direction 1.000000 0.000000 0.000000
      length 4.013002
      axis 0.0 0.0 0.0 xyz
   end
   begin
      id 3
      name RightUpLeg_dum
      direction -1.000000 0.000000 0.000000
      length 4.013002
      axis 0.0 0.0 0.0 xyz
   end
   begin
      id 4
      name Spine
      direction 0.000000 1.000000 0.000000
      length 0.000000
      axis 0.0 0.0 0.0 xyz
      dof rx ry rz
   end
   begin
      id 5
      name Spine_dum1
      direction 0.000000 1.000000 0.000000
      length 15.039886
      axis 0.0 0.0 0.0 xyz
   end
   begin
      id 6
      name Spine_dum2
      direction 0.000000 1.000000 0.000000
      length 10.530368
      axis 0.0 0.0 0.0 xyz
   end
   begin
      id 7
      name Spine_dum3
      direction 0.000000 1.000000 0.000000
      length 10.530368
      axis 0.0 0.0 0.0 xyz
   end
   begin
      id 8
      name Head
      direction 0.000000 1.000000 0.000000
      length 4.527550
      axis 0.0 0.0 0.0 xyz
      dof rx ry rz
   end
   begin
      id 9
      name LeftShoulder
      direction 1.000000 0.000000 0.000000
      length 7.028855
      axis 0.0 0.0 -90.0 xyz
      dof rx ry rz
   end
   begin
      id 10
      name LeftArm
      direction 1.000000 0.000000 0.000000
      length 10.797705
      axis 0.0 0.0 -90.0 xyz
      dof rx ry rz
   end
   begin
      id 11
      name LeftForeArm
      direction 1.000000 0.000000 0.000000
      length 7.907442
      axis 0.0 0.0 -90.0 xyz
      dof ry rz rx
   end
   begin
      id 12
      name LeftHand
      direction 0.000000 0.000000 0.000000
      length 0.000000
      axis 0.0 0.0 -90.0 xyz
      dof rx ry rz
   end
   begin
      id 13
      name LeftHand_dum1
      direction 0.000000 0.000000 0.000000
      length 0.000000
      axis 0.0 0.0 -90.0 xyz
   end
   begin
      id 14
      name LeftHand_dum2
      direction 1.000000 0.000000 0.000000
      length 3.937000
      axis 0.0 0.0 -90.0 xyz
   end
   begin
      id 15
      name LeftHandThumb1
      direction 0.000000 0.000000 1.000000
      length 3.937000
      axis 0.0 0.0 -90.0 xyz
      dof rx rz ry
   end
   begin
      id 16
      name RightShoulder
      direction -1.000000 0.000000 0.000000
      length 7.028855
      axis 0.0 0.0 90.0 xyz
      dof rx ry rz
   end
   begin
      id 17
      name RightArm
      direction -1.000000 0.000000 0.000000
      length 10.797705
      axis 0.0 0.0 90.0 xyz
      dof rx ry rz
   end
   begin
      id 18
      name RightForeArm
      direction -1.000000 0.000000 0.000000
      length 7.907442
      axis 0.0 0.0 90.0 xyz
      dof ry rz rx
   end
   begin
      id 19
      name RightHand
      direction 0.000000 0.000000 0.000000
      length 0.000000
      axis 0.0 0.0 90.0 xyz
      dof rx ry rz
   end
   begin
      id 20
      name RightHand_dum1
      direction 0.000000 0.000000 0.000000
      length 0.000000
      axis 0.0 0.0 90.0 xyz
   end
   begin
      id 21
      name RightHand_dum2
      direction -1.000000 0.000000 0.000000
      length 3.937000
      axis 0.0 0.0 90.0 xyz
   end
   begin
      id 22
      name RightHandThumb1
      direction 0.000000 0.000000 1.000000
      length 3.937000
      axis 0.0 0.0 90.0 xyz
      dof rx rz ry
   end
   begin
      id 23
      name LeftUpLeg
      direction 0.000000 -1.000000 0.000000
      length 16.899758
      axis 0.0 0.0 0.0 xyz
      dof rx ry rz
   end
   begin
      id 24
      name LeftLeg
      direction 0.000000 -1.000000 0.000000
      length 17.389183
      axis 0.0 0.0 0.0 xyz
      dof rx ry rz
   end
   begin
      id 25
      name LeftFoot
      direction 0.000000 -0.258819 0.965926
      length 4.924528
      axis 15.0 0.0 0.0 xyz
      dof rx ry rz
   end
   begin
      id 26
      name LeftToeBase
      direction 0.000000 0.000000 1.000000
      length 2.952750
      axis 0.0 0.0 0.0 xyz
      dof rx ry rz
   end
   begin
      id 27
      name RightUpLeg
      direction 0.000000 -1.000000 0.000000
      length 16.899758
      axis 0.0 0.0 0.0 xyz
      dof rx ry rz
   end
   begin
      id 28
      name RightLeg
      direction 0.000000 -1.000000 0.000000
      length 17.389183
      axis 0.0 0.0 0.0 xyz
      dof rx ry rz
   end
   begin
      id 29
      name RightFoot
      direction 0.000000 -0.258819 0.965926
      length 4.924528
      axis 15.0 0.0 0.0 xyz
      dof rx ry rz
   end
   begin
      id 30
      name RightToeBase
      direction 0.000000 0.000000 1.000000
      length 2.952750
      axis 0.0 0.0 0.0 xyz
      dof rx ry rz
   end
:hierarchy
   begin
      root Spine_dum LeftUpLeg_dum RightUpLeg_dum
      Spine_dum Spine
      LeftUpLeg_dum LeftUpLeg
      RightUpLeg_dum RightUpLeg
      Spine Spine_dum1 Spine_dum2 Spine_dum3
      Spine_dum1 Head
      Spine_dum2 LeftShoulder
      Spine_dum3 RightShoulder
      LeftShoulder LeftArm
      LeftArm LeftForeArm
      LeftForeArm LeftHand
      LeftHand LeftHand_dum1 LeftHand_dum2
      LeftHand_dum1 LeftHandThumb1
      RightShoulder RightArm
      RightArm RightForeArm
      RightForeArm RightHand
      RightHand RightHand_dum1 RightHand_dum2
      RightHand_dum1 RightHandThumb1
      LeftUpLeg LeftLeg
      LeftLeg LeftFoot
      LeftFoot LeftToeBase
      RightUpLeg RightLeg
      RightLeg RightFoot
      RightFoot RightToeBase
   end

# File created by Blade
# Date/Time:  Fri Jan 16 19:41:12 2015
# Frame Rate: 120.000 fps
#------------------------------------------------------
:FULLY-SPECIFIED
:DEGREES
55
root 18.394768 35.398963 -21.844763 8.650486 -0.114464 -1.646981
Spine -20.950234 -1.370114 -0.097057
Head 7.120632 1.769039 2.480772
LeftShoulder -14.376317 -30.602769 20.131870
LeftArm 2.131466 1.068096 -7.823966
LeftForeArm 10.027696 -0.000000 -2.269989
LeftHand -5.920018 -0.000000 -6.860809
LeftHandThumb1 -26.253704 0.000000 33.147579
RightShoulder -13.370670 -10.353336 -6.949368
RightArm 11.848874 33.851152 16.082971
RightForeArm -37.015631 -0.000000 7.001786
RightHand -7.985765 0.000000 8.427661
RightHandThumb1 -24.326973 -0.000000 -32.862282
LeftUpLeg 1.300700 8.888772 2.035878
LeftLeg -6.671824 -0.000000 0.000000
LeftFoot -21.670903 27.770636 -13.171206
LeftToeBase 25.090436 -0.000000 -0.000000
RightUpLeg -0.141750 -8.365934 -0.497644
RightLeg -3.192346 -0.000000 0.000000
RightFoot -22.087073 -21.359496 17.289801
RightToeBase 24.188334 -0.000000 -0.000000
56
root 18.397142 35.399269 -21.846647 8.663410 -0.115548 -1.645302
Spine -20.956302 -1.381535 -0.090798
Head 7.105895 1.772015 2.477273
LeftShoulder -14.368340 -30.587968 20.129190
LeftArm 2.134710 1.064106 -7.841367
LeftForeArm 10.075461 -0.000000 -2.279684
LeftHand -5.882779 -0.000000 -6.880721
LeftHandThumb1 -26.253704 0.000000 33.147579
RightShoulder -13.358728 -10.329163 -6.970723
RightArm 11.823097 33.831221 16.077364
RightForeArm -37.015591 -0.000000 7.013073
RightHand -7.978098 0.000000 8.483013
RightHandThumb1 -24.326973 -0.000000 -32.862282
LeftUpLeg 1.287097 8.876841 2.028267
LeftLeg -6.683610 -0.000000 0.000000
LeftFoot -21.694400 27.787944 -13.203798
LeftToeBase 25.158179 -0.000000 -0.000000
RightUpLeg -0.156828 -8.375716 -0.500446
RightLeg -3.195743 -0.000000 0.000000
RightFoot -22.074789 -21.345054 17.310424
RightToeBase 24.166502 -0.000000 -0.000000
57
root 18.399049 35.399277 -21.847930 8.668455 -0.116181 -1.640762
Spine -20.956741 -1.389136 -0.094080
Head 7.097886 1.781570 2.489302
LeftShoulder -14.302434 -30.709028 20.149582
LeftArm 2.033412 1.218566 -7.840328
LeftForeArm 10.081620 -0.000000 -2.275641
LeftHand -5.903334 -0.000000 -6.862844
LeftHandThumb1 -26.253704 0.000000 33.147579
RightShoulder -13.354165 -10.332952 -6.972249
RightArm 11.815870 33.842349 16.066144
RightForeArm -37.022655 0.000000 6.998700
RightHand -7.926297 -0.000000 8.515811
RightHandThumb1 -24.326973 -0.000000 -32.862282
LeftUpLeg 1.284692 8.868066 2.019419
LeftLeg -6.691057 -0.000000 0.000000
LeftFoot -21.687554 27.795773 -13.199624
LeftToeBase 25.137912 -0.000000 -0.000000
RightUpLeg -0.160017 -8.387134 -0.507417
RightLeg -3.202422 -0.000000 0.000000
RightFoot -22.072203 -21.341117 17.300919
RightToeBase 24.185181 -0.000000 -0.000000
58
root 18.401363 35.399368 -21.849109 8.672567 -0.126600 -1.640316
Spine -20.951974 -1.388893 -0.089862
Head 7.081124 1.762685 2.475803
LeftShoulder -14.367022 -30.652734 20.149691
LeftArm 2.155897 1.235933 -7.872193
LeftForeArm 10.024564 -0.000000 -2.316524
LeftHand -5.933379 -0.000000 -6.851157
LeftHandThumb1 -26.253704 0.000000 33.147579
RightShoulder -13.357901 -10.325993 -6.975329
RightArm 11.825484 33.842135 16.058055
RightForeArm -37.002208 0.000000 6.974426
RightHand -7.846937 -0.000000 8.513663
RightHandThumb1 -24.326973 -0.000000 -32.862282
LeftUpLeg 1.282262 8.879698 2.012644
LeftLeg -6.695337 -0.000000 0.000000
LeftFoot -21.687467 27.792838 -13.216038
LeftToeBase 25.143698 -0.000000 -0.000000
RightUpLeg -0.164983 -8.380631 -0.512617
RightLeg -3.206825 -0.000000 0.000000
RightFoot -22.060328 -21.335589 17.282429
RightToeBase 24.208381 -0.000000 -0.000000
59
root 18.403661 35.399682 -21.850767 8.679019 -0.129093 -1.643129
Spine -20.953112 -1.396612 -0.078677
Head 7.083109 1.762872 2.470601
LeftShoulder -14.353194 -30.633459 20.149197
LeftArm 2.143163 1.250067 -7.904631
LeftForeArm 9.926721 -0.000000 -2.292413
LeftHand -5.957078 -0.000000 -6.867750
LeftHandThumb1 -26.253704 0.000000 33.147579
RightShoulder -13.355398 -10.319856 -6.975399
RightArm 11.835617 33.836371 16.047032
RightForeArm -36.981644 -0.000000 6.945944
RightHand -7.825623 -0.000000 8.506643
RightHandThumb1 -24.326973 -0.000000 -32.862282
LeftUpLeg 1.274578 8.875560 2.010281
LeftLeg -6.698239 -0.000000 0.000000
LeftFoot -21.680899 27.808556 -13.195281
LeftToeBase 25.139991 -0.000000 -0.000000
RightUpLeg -0.174967 -8.383008 -0.510854
RightLeg -3.208987 -0.000000 0.000000
RightFoot -22.051849 -21.338558 17.302885
RightToeBase 24.182048 -0.000000 -0.000000
60
root 18.406236 35.400048 -21.852188 8.689898 -0.127839 -1.643894
Spine -20.960449 -1.403334 -0.070948
Head 7.074878 1.759984 2.470009
LeftShoulder -14.342881 -30.663828 20.154188
LeftArm 2.131094 1.289621 -7.923956
LeftForeArm 9.899247 -0.000000 -2.291983
LeftHand -5.888994 -0.000000 -6.924524
LeftHandThumb1 -26.253704 0.000000 33.147579
RightShoulder -13.361844 -10.318195 -6.973796
RightArm 11.836979 33.836241 16.032619
RightForeArm -36.985568 -0.000000 6.943674
RightHand -7.801110 -0.000000 8.536166
RightHandThumb1 -24.326973 -0.000000 -32.862282
LeftUpLeg 1.261378 8.866302 2.004732
LeftLeg -6.698763 -0.000000 0.000000
LeftFoot -21.676863 27.819815 -13.184300
LeftToeBase 25.138643 -0.000000 -0.000000
RightUpLeg -0.184808 -8.391134 -0.509452
RightLeg -3.219128 -0.000000 0.000000
RightFoot -22.049967 -21.347485 17.309222
RightToeBase 24.192393 -0.000000 -0.000000
